<?xml version="1.0" standalone="no"?>
<!DOCTYPE svg PUBLIC "-//W3C//DTD SVG 20010904//EN"
 "http://www.w3.org/TR/2001/REC-SVG-20010904/DTD/svg10.dtd">
<svg version="1.0" xmlns="http://www.w3.org/2000/svg"
 width="700.000000pt" height="700.000000pt" viewBox="0 0 700.000000 700.000000"
 preserveAspectRatio="xMidYMid meet">
<metadata>
Created by potrace 1.11, written by Peter Selinger 2001-2013
</metadata>
<g transform="translate(0.000000,700.000000) scale(0.100000,-0.100000)"
fill="#000000" stroke="none">
<path d="M3457 6174 c-1 -1 -60 -4 -131 -8 -71 -4 -132 -8 -135 -10 -3 -2 -31
-7 -61 -10 -30 -4 -62 -8 -70 -11 -8 -3 -29 -7 -45 -9 -121 -15 -426 -109
-565 -173 -269 -123 -482 -258 -675 -426 -275 -240 -501 -537 -656 -862 -123
-259 -210 -553 -235 -795 -3 -30 -8 -62 -11 -70 -3 -8 -7 -109 -8 -225 -3
-225 9 -371 45 -555 6 -30 14 -66 16 -80 56 -286 268 -755 440 -969 7 -9 44
-56 84 -106 110 -139 269 -297 431 -428 50 -40 252 -176 312 -209 86 -48 291
-146 353 -169 80 -29 264 -89 289 -93 11 -2 50 -11 88 -20 37 -9 79 -18 95
-21 15 -3 38 -7 51 -10 13 -2 49 -7 80 -11 31 -3 65 -9 76 -12 11 -3 677 -7
1480 -8 l1461 -2 0 589 c0 406 -3 589 -10 590 -6 1 -105 2 -221 3 -241 2 -231
-4 -166 93 43 64 135 245 176 344 37 89 104 282 110 320 3 18 10 39 14 48 5 9
9 19 9 24 0 4 3 20 6 35 20 88 45 233 51 292 3 30 8 72 11 93 12 89 4 475 -10
527 -3 8 -7 38 -10 65 -3 28 -8 61 -11 75 -3 14 -8 39 -10 55 -11 60 -58 242
-82 315 -219 660 -680 1202 -1293 1523 -189 99 -497 212 -630 232 -25 4 -48 9
-52 12 -10 5 -21 7 -161 28 -60 8 -147 18 -195 21 -98 6 -232 11 -235 8z m163
-1398 c298 -24 610 -177 824 -404 147 -157 288 -423 321 -607 3 -16 11 -57 17
-90 24 -133 13 -360 -23 -505 -72 -283 -239 -541 -464 -715 -73 -56 -104 -76
-205 -132 -94 -53 -286 -115 -391 -128 -24 -3 -55 -7 -69 -10 -35 -7 -214 -7
-280 0 -166 19 -374 88 -514 172 -240 143 -454 389 -545 628 -13 33 -27 69
-32 80 -13 30 -47 173 -55 235 -17 121 -8 357 18 455 5 22 12 49 14 60 6 36
51 159 80 220 196 416 612 707 1063 742 42 3 77 6 78 7 3 3 68 -1 163 -8z"/>
</g>
</svg>
